<svg width="205" height="227" viewBox="0 0 205 227" fill="none" xmlns="http://www.w3.org/2000/svg">
<path d="M35.9554 88.1903L100.811 0.46684L204.328 60.2325L186.677 90.8055L113.225 48.3983L85.7333 85.4685C97.1299 85.8463 107.733 88.8672 117.544 94.5313C135.135 104.688 145.771 118.101 149.452 134.773C153.132 151.445 149.309 169.591 137.981 189.212C131.096 201.137 122.382 210.37 111.839 216.913C101.429 223.419 90.0168 226.585 77.6018 226.408C65.2357 226.147 52.6674 222.33 39.897 214.957C28.7333 208.512 19.6671 200.289 12.6983 190.289C5.77828 180.205 1.89554 169.449 1.05006 158.023C0.289158 146.646 2.7669 135.616 8.4833 124.934L44.765 145.881C41.0828 154.016 40.2801 161.559 42.3568 168.509C44.5669 175.423 49.3931 181.029 56.8355 185.326C65.1237 190.111 73.2179 190.837 81.1182 187.505C89.0674 184.088 96.1914 176.925 102.49 166.015C108.545 155.528 110.604 146.004 108.668 137.444C106.732 128.884 101.027 121.869 91.5551 116.4C82.8441 111.371 74.464 109.577 66.4146 111.019L60.9582 112.267L35.9554 88.1903Z" fill="#A40004"/>
</svg>
