<svg width="797" height="677" viewBox="0 0 797 677" fill="none" xmlns="http://www.w3.org/2000/svg">
<path fill-rule="evenodd" clip-rule="evenodd" d="M167.385 193.082C147.484 232.875 135.478 277.42 133.501 324.753C126.01 504.089 265.318 655.543 444.654 663.034C623.99 670.525 775.443 531.217 782.935 351.881C790.128 179.676 661.965 33.181 492.98 15.1695L493.482 380.757L167.385 193.082Z" fill="#A40004"/>
<path d="M37.8987 34.7744L35.3252 40.1108C40.8621 38.0076 46.3932 38.5511 51.9187 41.7412C57.8106 45.1429 60.5132 49.8042 60.0265 55.7252C65.9258 52.9292 71.8496 53.2483 77.7979 56.6826C82.7595 59.5471 85.6143 63.1311 86.3623 67.4345C87.1266 71.7098 85.8323 76.751 82.4794 82.5584L65.6093 111.778L53.3463 104.698L70.192 75.5206C71.6893 72.927 72.2724 70.7452 71.9411 68.9753C71.6261 67.1771 70.1859 65.5375 67.6206 64.0564C63.9557 61.9405 60.4094 62.2235 56.9817 64.9054L38.8843 96.3486L26.6635 89.2929L43.4848 60.1576C45.0148 57.5076 45.6 55.2896 45.2405 53.5033C44.8811 51.7171 43.4468 50.0997 40.9378 48.6511C37.4704 46.6492 34.1313 46.6383 30.9206 48.6186L12.2439 80.9677L0.0231061 73.9121L26.4391 28.1582L37.8987 34.7744ZM79.1403 111.584C80.2633 109.639 81.8232 108.435 83.8198 107.971C85.8447 107.524 87.8438 107.87 89.8171 109.009C91.8187 110.165 93.1179 111.723 93.7148 113.684C94.3399 115.661 94.091 117.622 92.9679 119.568C91.8611 121.485 90.3094 122.675 88.3128 123.138C86.3324 123.574 84.3273 123.205 82.2976 122.033C80.296 120.878 78.9887 119.334 78.3755 117.401C77.7786 115.44 78.0335 113.501 79.1403 111.584ZM124.471 133.753C126.726 135.055 128.917 135.493 131.042 135.066C133.168 134.639 134.853 133.413 136.098 131.388L147.557 138.004C145.739 141.089 143.249 143.448 140.089 145.081C136.944 146.686 133.505 147.369 129.771 147.131C126.082 146.88 122.49 145.746 118.994 143.728C112.454 139.951 108.491 134.901 107.106 128.576C105.737 122.223 107.169 115.381 111.4 108.052L111.864 107.248C115.933 100.2 121.055 95.6586 127.23 93.6229C133.404 91.5871 139.762 92.4573 146.302 96.2333C152.025 99.5374 155.662 103.817 157.213 109.073C158.809 114.317 158.072 119.662 155.004 125.107L143.544 118.491C144.855 116.09 145.229 113.75 144.665 111.47C144.119 109.162 142.689 107.341 140.378 106.006C137.53 104.362 134.771 104.16 132.101 105.4C129.475 106.628 126.82 109.568 124.134 114.219L123.402 115.488C120.683 120.196 119.449 123.994 119.699 126.882C119.948 129.77 121.539 132.06 124.471 133.753ZM156.953 133.449C159.573 128.91 162.783 125.37 166.582 122.827C170.38 120.284 174.476 118.984 178.869 118.926C183.291 118.886 187.672 120.118 192.013 122.625C198.187 126.189 202.129 130.983 203.838 137.007C205.576 143.047 204.798 149.439 201.506 156.184L199.784 159.362C195.731 166.381 190.517 170.888 184.14 172.883C177.78 174.849 171.302 173.928 164.705 170.119C158.109 166.311 154.058 161.153 152.552 154.645C151.075 148.154 152.436 141.272 156.636 133.999L156.953 133.449ZM168.661 141.393C166.155 145.734 165.052 149.533 165.352 152.788C165.669 156.016 167.349 158.509 170.394 160.266C173.354 161.975 176.317 162.182 179.282 160.887C182.264 159.564 185.195 156.408 188.076 151.418C190.533 147.161 191.606 143.383 191.294 140.082C190.981 136.782 189.317 134.261 186.301 132.52C183.312 130.795 180.325 130.63 177.339 132.026C174.37 133.393 171.477 136.516 168.661 141.393ZM232.036 146.859L229.364 152.365C234.995 150.165 240.558 150.652 246.056 153.826C250.904 156.626 253.691 160.133 254.415 164.347C255.139 168.562 253.894 173.518 250.679 179.217L233.613 208.775L221.392 201.72L238.287 172.457C239.784 169.864 240.303 167.664 239.843 165.857C239.398 164.022 237.866 162.347 235.244 160.834C231.805 158.848 228.379 158.825 224.966 160.764L206.338 193.028L194.118 185.973L220.534 140.219L232.036 146.859ZM274.996 215.809C275.858 214.315 275.787 212.714 274.781 211.006C273.82 209.285 271.899 207.143 269.02 204.578C259.456 196.012 256.685 188.248 260.705 181.285C263.049 177.225 266.679 174.811 271.596 174.041C276.558 173.26 281.759 174.44 287.2 177.581C293.007 180.934 296.856 184.979 298.744 189.715C300.661 194.468 300.358 199.029 297.835 203.399L285.615 196.343C286.624 194.595 286.89 192.832 286.413 191.053C285.953 189.246 284.525 187.651 282.129 186.268C280.071 185.079 278.209 184.625 276.545 184.904C274.88 185.183 273.632 186.042 272.802 187.48C272.021 188.833 272.021 190.299 272.801 191.877C273.626 193.443 275.381 195.415 278.068 197.793C280.771 200.143 282.945 202.301 284.592 204.266C289.681 210.361 290.54 216.327 287.171 222.162C284.762 226.335 281.019 228.684 275.941 229.21C270.88 229.709 265.516 228.322 259.85 225.051C256.016 222.837 252.995 220.191 250.788 217.113C248.626 214.022 247.383 210.805 247.058 207.46C246.75 204.088 247.394 201.02 248.989 198.257L260.575 204.947C259.435 207.182 259.278 209.31 260.105 211.328C260.932 213.346 262.599 215.08 265.108 216.529C267.448 217.879 269.463 218.46 271.151 218.269C272.884 218.067 274.166 217.247 274.996 215.809ZM335.027 191.324L328.533 202.572L336.356 207.089L331.18 216.054L323.357 211.537L310.174 234.372C309.197 236.063 308.822 237.462 309.047 238.57C309.272 239.677 310.301 240.76 312.133 241.818C313.486 242.599 314.741 243.192 315.898 243.597L310.552 252.858C307.732 252.207 305.054 251.149 302.517 249.685C293.947 244.737 292.076 237.887 296.903 229.134L311.137 204.481L304.455 200.624L309.631 191.659L316.312 195.517L322.807 184.268L335.027 191.324ZM362.258 237.323C360.725 236.137 359.324 235.178 358.056 234.446C353.432 231.776 349.499 231.591 346.254 233.89L328.969 263.829L316.748 256.773L343.164 211.019L354.708 217.685L351.897 223.335C356.775 220.55 361.385 220.411 365.726 222.918C367.079 223.699 368.242 224.615 369.214 225.665L362.258 237.323ZM345.122 265.149C346.245 263.203 347.805 261.999 349.801 261.536C351.826 261.088 353.825 261.434 355.799 262.574C357.8 263.729 359.099 265.288 359.696 267.248C360.321 269.226 360.072 271.187 358.949 273.132C357.843 275.049 356.291 276.239 354.294 276.703C352.314 277.138 350.309 276.77 348.279 275.598C346.277 274.442 344.97 272.898 344.357 270.965C343.76 269.005 344.015 267.066 345.122 265.149ZM411.733 265.887C410.2 264.701 408.799 263.742 407.531 263.01C402.907 260.341 398.974 260.156 395.729 262.455L378.444 292.393L366.223 285.338L392.639 239.584L404.183 246.249L401.372 251.899C406.25 249.115 410.86 248.976 415.201 251.482C416.554 252.264 417.717 253.179 418.689 254.229L411.733 265.887ZM427.941 314.768C422.808 316.692 417.578 316.115 412.25 313.039C407.345 310.207 404.409 306.633 403.443 302.316C402.506 298.016 403.579 293.129 406.664 287.656L423.974 257.675L436.194 264.73L419.129 294.289C416.378 299.053 417.174 302.688 421.515 305.195C425.659 307.587 429.336 307.794 432.547 305.813L451.248 273.422L463.511 280.502L437.095 326.256L425.593 319.615L427.941 314.768Z" fill="#333333"/>
</svg>
