<svg width="204" height="58" viewBox="0 0 204 58" fill="none" xmlns="http://www.w3.org/2000/svg">
<path d="M9.22278 21.4742L24.7881 0.420539L49.6322 14.7643L45.3958 22.1018L27.7675 11.9241L21.1695 20.8209C23.9046 20.9116 26.4495 21.6366 28.804 22.996C33.0259 25.4335 35.5785 28.6529 36.4619 32.654C37.3453 36.6552 36.4276 41.0103 33.7088 45.7193C32.0565 48.5813 29.9651 50.7973 27.4348 52.3675C24.9365 53.9292 22.1975 54.6888 19.2179 54.6465C16.2501 54.5838 13.2337 53.6677 10.1687 51.8982C7.48948 50.3513 5.31359 48.3779 3.64107 45.9779C1.98026 43.5576 1.04841 40.9763 0.845491 38.234C0.662874 35.5035 1.25753 32.8563 2.62947 30.2925L11.3371 35.3199C10.4534 37.2724 10.2607 39.0827 10.7591 40.7507C11.2895 42.4101 12.4478 43.7554 14.234 44.7867C16.2232 45.9351 18.1658 46.1094 20.0618 45.3097C21.9696 44.4897 23.6794 42.7705 25.1911 40.1521C26.6442 37.6352 27.1385 35.3496 26.6737 33.2951C26.209 31.2406 24.84 29.5571 22.5667 28.2446C20.4761 27.0376 18.4648 26.6071 16.533 26.9532L15.2234 27.2526L9.22278 21.4742Z" fill="#A40004"/>
<path d="M24.7148 37.9805L24.873 40.1074C26.2207 38.4551 28.043 37.6289 30.3398 37.6289C32.7891 37.6289 34.4707 38.5957 35.3848 40.5293C36.7207 38.5957 38.625 37.6289 41.0977 37.6289C43.1602 37.6289 44.6953 38.2324 45.7031 39.4395C46.7109 40.6348 47.2148 42.4395 47.2148 44.8535V57H42.1172V44.8711C42.1172 43.793 41.9062 43.0078 41.4844 42.5156C41.0625 42.0117 40.3184 41.7598 39.252 41.7598C37.7285 41.7598 36.6738 42.4863 36.0879 43.9395L36.1055 57H31.0254V44.8887C31.0254 43.7871 30.8086 42.9902 30.375 42.498C29.9414 42.0059 29.2031 41.7598 28.1602 41.7598C26.7188 41.7598 25.6758 42.3574 25.0312 43.5527V57H19.9512V37.9805H24.7148ZM51.3984 54.5039C51.3984 53.6953 51.668 53.0391 52.207 52.5352C52.7578 52.0312 53.4434 51.7793 54.2637 51.7793C55.0957 51.7793 55.7812 52.0312 56.3203 52.5352C56.8711 53.0391 57.1465 53.6953 57.1465 54.5039C57.1465 55.3008 56.877 55.9512 56.3379 56.4551C55.7988 56.9473 55.1074 57.1934 54.2637 57.1934C53.4316 57.1934 52.7461 56.9473 52.207 56.4551C51.668 55.9512 51.3984 55.3008 51.3984 54.5039ZM69.5215 53.2559C70.459 53.2559 71.2207 52.998 71.8066 52.4824C72.3926 51.9668 72.6973 51.2812 72.7207 50.4258H77.4844C77.4727 51.7148 77.1211 52.8984 76.4297 53.9766C75.7383 55.043 74.7891 55.875 73.582 56.4727C72.3867 57.0586 71.0625 57.3516 69.6094 57.3516C66.8906 57.3516 64.7461 56.4902 63.1758 54.7676C61.6055 53.0332 60.8203 50.6426 60.8203 47.5957V47.2617C60.8203 44.332 61.5996 41.9941 63.1582 40.248C64.7168 38.502 66.8555 37.6289 69.5742 37.6289C71.9531 37.6289 73.8574 38.3086 75.2871 39.668C76.7285 41.0156 77.4609 42.8145 77.4844 45.0645H72.7207C72.6973 44.0801 72.3926 43.2832 71.8066 42.6738C71.2207 42.0527 70.4473 41.7422 69.4863 41.7422C68.3027 41.7422 67.4062 42.1758 66.7969 43.043C66.1992 43.8984 65.9004 45.293 65.9004 47.2266V47.7539C65.9004 49.7109 66.1992 51.1172 66.7969 51.9727C67.3945 52.8281 68.3027 53.2559 69.5215 53.2559ZM79.5938 47.3145C79.5938 45.4277 79.957 43.7461 80.6836 42.2695C81.4102 40.793 82.4531 39.6504 83.8125 38.8418C85.1836 38.0332 86.7715 37.6289 88.5762 37.6289C91.1426 37.6289 93.2344 38.4141 94.8516 39.9844C96.4805 41.5547 97.3887 43.6875 97.5762 46.3828L97.6113 47.6836C97.6113 50.6016 96.7969 52.9453 95.168 54.7148C93.5391 56.4727 91.3535 57.3516 88.6113 57.3516C85.8691 57.3516 83.6777 56.4727 82.0371 54.7148C80.4082 52.957 79.5938 50.5664 79.5938 47.543V47.3145ZM84.6738 47.6836C84.6738 49.4883 85.0137 50.8711 85.6934 51.832C86.373 52.7812 87.3457 53.2559 88.6113 53.2559C89.8418 53.2559 90.8027 52.7871 91.4941 51.8496C92.1855 50.9004 92.5312 49.3887 92.5312 47.3145C92.5312 45.5449 92.1855 44.1738 91.4941 43.2012C90.8027 42.2285 89.8301 41.7422 88.5762 41.7422C87.334 41.7422 86.373 42.2285 85.6934 43.2012C85.0137 44.1621 84.6738 45.6562 84.6738 47.6836ZM105.416 37.9805L105.574 40.1777C106.934 38.4785 108.756 37.6289 111.041 37.6289C113.057 37.6289 114.557 38.2207 115.541 39.4043C116.525 40.5879 117.029 42.3574 117.053 44.7129V57H111.973V44.8359C111.973 43.7578 111.738 42.9785 111.27 42.498C110.801 42.0059 110.021 41.7598 108.932 41.7598C107.502 41.7598 106.43 42.3691 105.715 43.5879V57H100.635V37.9805H105.416ZM131.221 51.7441C131.221 51.123 130.91 50.6367 130.289 50.2852C129.68 49.9219 128.695 49.5996 127.336 49.3184C122.812 48.3691 120.551 46.4473 120.551 43.5527C120.551 41.8652 121.248 40.459 122.643 39.334C124.049 38.1973 125.883 37.6289 128.145 37.6289C130.559 37.6289 132.486 38.1973 133.928 39.334C135.381 40.4707 136.107 41.9473 136.107 43.7637H131.027C131.027 43.0371 130.793 42.4395 130.324 41.9707C129.855 41.4902 129.123 41.25 128.127 41.25C127.271 41.25 126.609 41.4434 126.141 41.8301C125.672 42.2168 125.438 42.709 125.438 43.3066C125.438 43.8691 125.701 44.3262 126.229 44.6777C126.768 45.0176 127.67 45.3164 128.936 45.5742C130.201 45.8203 131.268 46.1016 132.135 46.418C134.818 47.4023 136.16 49.1074 136.16 51.5332C136.16 53.2676 135.416 54.6738 133.928 55.752C132.439 56.8184 130.518 57.3516 128.162 57.3516C126.568 57.3516 125.15 57.0703 123.908 56.5078C122.678 55.9336 121.711 55.1543 121.008 54.1699C120.305 53.1738 119.953 52.1016 119.953 50.9531H124.77C124.816 51.8555 125.15 52.5469 125.771 53.0273C126.393 53.5078 127.225 53.748 128.268 53.748C129.24 53.748 129.973 53.5664 130.465 53.2031C130.969 52.8281 131.221 52.3418 131.221 51.7441ZM145.529 33.3047V37.9805H148.781V41.707H145.529V51.1992C145.529 51.9023 145.664 52.4062 145.934 52.7109C146.203 53.0156 146.719 53.168 147.48 53.168C148.043 53.168 148.541 53.127 148.975 53.0449V56.8945C147.979 57.1992 146.953 57.3516 145.898 57.3516C142.336 57.3516 140.52 55.5527 140.449 51.9551V41.707H137.672V37.9805H140.449V33.3047H145.529ZM162.299 42.7441C161.607 42.6504 160.998 42.6035 160.471 42.6035C158.549 42.6035 157.289 43.2539 156.691 44.5547V57H151.611V37.9805H156.41L156.551 40.248C157.57 38.502 158.982 37.6289 160.787 37.6289C161.35 37.6289 161.877 37.7051 162.369 37.8574L162.299 42.7441ZM161.965 54.5039C161.965 53.6953 162.234 53.0391 162.773 52.5352C163.324 52.0312 164.01 51.7793 164.83 51.7793C165.662 51.7793 166.348 52.0312 166.887 52.5352C167.438 53.0391 167.713 53.6953 167.713 54.5039C167.713 55.3008 167.443 55.9512 166.904 56.4551C166.365 56.9473 165.674 57.1934 164.83 57.1934C163.998 57.1934 163.312 56.9473 162.773 56.4551C162.234 55.9512 161.965 55.3008 161.965 54.5039ZM182.865 42.7441C182.174 42.6504 181.564 42.6035 181.037 42.6035C179.115 42.6035 177.855 43.2539 177.258 44.5547V57H172.178V37.9805H176.977L177.117 40.248C178.137 38.502 179.549 37.6289 181.354 37.6289C181.916 37.6289 182.443 37.7051 182.936 37.8574L182.865 42.7441ZM196.717 55.0664C195.463 56.5898 193.729 57.3516 191.514 57.3516C189.475 57.3516 187.916 56.7656 186.838 55.5938C185.771 54.4219 185.227 52.7051 185.203 50.4434V37.9805H190.283V50.2676C190.283 52.248 191.186 53.2383 192.99 53.2383C194.713 53.2383 195.896 52.6406 196.541 51.4453V37.9805H201.639V57H196.857L196.717 55.0664Z" fill="#333333"/>
</svg>
